
<svg width="24" height="24" viewBox="0 0 24 24" fill="none" xmlns="http://www.w3.org/2000/svg">
<path d="M12 3C11.3038 3 10.6361 3.27656 10.1438 3.76884C9.65156 4.26113 9.375 4.92881 9.375 5.625C9.375 6.32119 9.65156 6.98887 10.1438 7.48116C10.6361 7.97344 11.3038 8.25 12 8.25C12.6962 8.25 13.3639 7.97344 13.8562 7.48116C14.3484 6.98887 14.625 6.32119 14.625 5.625C14.625 4.92881 14.3484 4.26113 13.8562 3.76884C13.3639 3.27656 12.6962 3 12 3ZM8.625 5.625C8.625 4.72989 8.98058 3.87145 9.61352 3.23851C10.2465 2.60558 11.1049 2.25 12 2.25C12.8951 2.25 13.7536 2.60558 14.3865 3.23851C15.0194 3.87145 15.375 4.72989 15.375 5.625C15.375 6.52011 15.0194 7.37855 14.3865 8.01149C13.7536 8.64442 12.8951 9 12 9C11.1049 9 10.2465 8.64442 9.61352 8.01149C8.98058 7.37855 8.625 6.52011 8.625 5.625ZM4.5 5.25C3.90326 5.25 3.33097 5.48705 2.90901 5.90901C2.48705 6.33097 2.25 6.90326 2.25 7.5C2.25 8.09674 2.48705 8.66903 2.90901 9.09099C3.33097 9.51295 3.90326 9.75 4.5 9.75C5.09674 9.75 5.66903 9.51295 6.09099 9.09099C6.51295 8.66903 6.75 8.09674 6.75 7.5C6.75 6.90326 6.51295 6.33097 6.09099 5.90901C5.66903 5.48705 5.09674 5.25 4.5 5.25ZM1.5 7.5C1.5 6.70435 1.81607 5.94129 2.37868 5.37868C2.94129 4.81607 3.70435 4.5 4.5 4.5C5.29565 4.5 6.05871 4.81607 6.62132 5.37868C7.18393 5.94129 7.5 6.70435 7.5 7.5C7.5 8.29565 7.18393 9.05871 6.62132 9.62132C6.05871 10.1839 5.29565 10.5 4.5 10.5C3.70435 10.5 2.94129 10.1839 2.37868 9.62132C1.81607 9.05871 1.5 8.29565 1.5 7.5ZM17.25 7.5C17.25 6.90326 17.4871 6.33097 17.909 5.90901C18.331 5.48705 18.9033 5.25 19.5 5.25C20.0967 5.25 20.669 5.48705 21.091 5.90901C21.5129 6.33097 21.75 6.90326 21.75 7.5C21.75 8.09674 21.5129 8.66903 21.091 9.09099C20.669 9.51295 20.0967 9.75 19.5 9.75C18.9033 9.75 18.331 9.51295 17.909 9.09099C17.4871 8.66903 17.25 8.09674 17.25 7.5ZM19.5 4.5C18.7044 4.5 17.9413 4.81607 17.3787 5.37868C16.8161 5.94129 16.5 6.70435 16.5 7.5C16.5 8.29565 16.8161 9.05871 17.3787 9.62132C17.9413 10.1839 18.7044 10.5 19.5 10.5C20.2957 10.5 21.0587 10.1839 21.6213 9.62132C22.1839 9.05871 22.5 8.29565 22.5 7.5C22.5 6.70435 22.1839 5.94129 21.6213 5.37868C21.0587 4.81607 20.2957 4.5 19.5 4.5ZM7.5 12.375C7.5 11.8777 7.69754 11.4008 8.04918 11.0492C8.40081 10.6975 8.87772 10.5 9.375 10.5H14.625C15.1223 10.5 15.5992 10.6975 15.9508 11.0492C16.3025 11.4008 16.5 11.8777 16.5 12.375V16.5C16.5 17.6935 16.0259 18.8381 15.182 19.682C14.3381 20.5259 13.1935 21 12 21C10.8065 21 9.66193 20.5259 8.81802 19.682C7.97411 18.8381 7.5 17.6935 7.5 16.5V12.375ZM9.375 11.25C9.07663 11.25 8.79048 11.3685 8.57951 11.5795C8.36853 11.7905 8.25 12.0766 8.25 12.375V16.5C8.25 17.4946 8.64509 18.4484 9.34835 19.1517C10.0516 19.8549 11.0054 20.25 12 20.25C12.9946 20.25 13.9484 19.8549 14.6517 19.1517C15.3549 18.4484 15.75 17.4946 15.75 16.5V12.375C15.75 12.0766 15.6315 11.7905 15.4205 11.5795C15.2095 11.3685 14.9234 11.25 14.625 11.25H9.375ZM6.8175 11.7802C6.7724 11.9753 6.74975 12.1748 6.75 12.375V12.5753L3.084 13.5577C2.79608 13.6351 2.55062 13.8236 2.40156 14.0817C2.2525 14.3399 2.21201 14.6467 2.289 14.9348L2.9685 17.4705C3.1071 17.9881 3.35501 18.4699 3.69552 18.8836C4.03604 19.2973 4.46125 19.6333 4.94253 19.8688C5.4238 20.1043 5.94996 20.2339 6.48556 20.249C7.02116 20.264 7.55376 20.1641 8.0475 19.956C8.224 20.1575 8.41475 20.3448 8.61975 20.5178C8.02252 20.8196 7.36551 20.9844 6.69654 21.0002C6.02757 21.016 5.36349 20.8825 4.75266 20.6092C4.14183 20.336 3.59962 19.93 3.16551 19.4208C2.73141 18.9115 2.41634 18.3119 2.24325 17.6655L1.5645 15.129C1.50076 14.8911 1.4845 14.6431 1.51664 14.3989C1.54878 14.1548 1.6287 13.9194 1.75183 13.7061C1.87497 13.4928 2.0389 13.3059 2.23427 13.156C2.42965 13.0062 2.65263 12.8962 2.8905 12.8325L6.8175 11.7802ZM15.3803 20.5178C15.6518 20.6543 15.9403 20.764 16.2458 20.847C17.3985 21.1558 18.6268 20.994 19.6603 20.3972C20.6938 19.8004 21.4479 18.8175 21.7568 17.6647L22.4363 15.1298C22.565 14.6495 22.4977 14.1377 22.2492 13.7071C22.0007 13.2764 21.5913 12.9621 21.111 12.8333L17.1825 11.7802C17.2275 11.9717 17.25 12.17 17.25 12.375V12.5753L20.9168 13.5577C21.2047 13.6351 21.4501 13.8236 21.5992 14.0817C21.7483 14.3399 21.7887 14.6467 21.7118 14.9348L21.033 17.4705C20.8944 17.9883 20.6465 18.4703 20.3059 18.8841C19.9653 19.298 19.5399 19.634 19.0584 19.8695C18.577 20.1051 18.0506 20.2347 17.5148 20.2496C16.9791 20.2645 16.4463 20.1644 15.9525 19.956C15.776 20.157 15.5853 20.3448 15.3803 20.5178Z" fill="black"/>
</svg>
