<svg width="24" height="24" viewBox="0 0 24 24" fill="none" xmlns="http://www.w3.org/2000/svg">
<path d="M16.08 16.502L19.977 12.606C20.0743 12.5086 20.1923 12.4576 20.331 12.453C20.4697 12.4483 20.5877 12.5013 20.685 12.612C20.7783 12.714 20.825 12.833 20.825 12.969C20.825 13.105 20.7783 13.2216 20.685 13.319L16.671 17.339C16.5097 17.5003 16.3213 17.581 16.106 17.581C15.8907 17.581 15.702 17.5 15.54 17.338L13.603 15.4C13.5097 15.3066 13.4663 15.192 13.473 15.056C13.479 14.92 13.529 14.8053 13.623 14.712C13.717 14.6186 13.8327 14.572 13.97 14.572C14.1073 14.572 14.2207 14.6186 14.31 14.712L16.08 16.502ZM16.08 9.27196L19.977 5.37496C20.0743 5.27763 20.1923 5.22663 20.331 5.22196C20.4697 5.2173 20.5877 5.2703 20.685 5.38096C20.7783 5.48296 20.825 5.60196 20.825 5.73796C20.825 5.87396 20.7783 5.99063 20.685 6.08796L16.671 10.108C16.5097 10.2693 16.3213 10.35 16.106 10.35C15.8907 10.35 15.702 10.2693 15.54 10.108L13.602 8.16896C13.5087 8.07563 13.4653 7.96096 13.472 7.82496C13.478 7.68896 13.528 7.5743 13.622 7.48096C13.716 7.38763 13.8317 7.34096 13.969 7.34096C14.1063 7.34096 14.2197 7.38763 14.309 7.48096L16.08 9.27196ZM3.50001 16.115C3.35801 16.115 3.23934 16.067 3.14401 15.971C3.04867 15.875 3.00067 15.7563 3.00001 15.615C2.99934 15.4736 3.04734 15.355 3.14401 15.259C3.24067 15.163 3.35934 15.1153 3.50001 15.116H10.5C10.642 15.116 10.7607 15.1636 10.856 15.259C10.952 15.355 11 15.474 11 15.616C11 15.758 10.952 15.8766 10.856 15.972C10.76 16.0673 10.6413 16.1153 10.5 16.116L3.50001 16.115ZM3.50001 8.88396C3.35801 8.88396 3.23934 8.83596 3.14401 8.73996C3.04801 8.64463 3.00001 8.52596 3.00001 8.38396C3.00001 8.24196 3.04801 8.1233 3.14401 8.02796C3.24001 7.93263 3.35867 7.88463 3.50001 7.88396H10.5C10.642 7.88396 10.7607 7.93196 10.856 8.02796C10.9513 8.12396 10.9993 8.24296 11 8.38496C11.0007 8.52696 10.9527 8.64563 10.856 8.74096C10.7593 8.8363 10.6407 8.88396 10.5 8.88396H3.50001Z" fill="black"/>
</svg>
