<svg width="20" height="15" viewBox="0 0 20 15" fill="none" xmlns="http://www.w3.org/2000/svg">
    <g id="Group">
        <path id="Vector" fill-rule="evenodd" clip-rule="evenodd"
            d="M18.0812 10.6946C18.0812 12.3835 16.7074 13.7552 15.0206 13.7552H4.97936C3.2926 13.7552 1.91873 12.3835 1.91873 10.6946V4.30549C1.91835 3.76116 2.06418 3.22673 2.34096 2.75803L7.24049 7.65756C7.9735 8.39272 8.9551 8.79779 10.001 8.79779C11.0448 8.79779 12.0264 8.39272 12.7594 7.65756L17.659 2.75803C17.9358 3.22672 18.0816 3.76116 18.0812 4.30549V10.6946H18.0812ZM15.0206 1.2449H4.97936C4.28279 1.2449 3.63979 1.48064 3.12541 1.87287L8.07424 6.82385C8.5865 7.33393 9.27018 7.61686 10.001 7.61686C10.7297 7.61686 11.4135 7.33393 11.9257 6.82385L16.8745 1.87287C16.3602 1.48064 15.7172 1.2449 15.0206 1.2449ZM15.0206 0.0639648H4.97936C2.64104 0.0639648 0.737793 1.96721 0.737793 4.30553V10.6947C0.737793 13.0351 2.64104 14.9362 4.97936 14.9362H15.0206C17.3589 14.9362 19.2622 13.0351 19.2622 10.6947V4.30549C19.2622 1.96717 17.3589 0.0639648 15.0206 0.0639648Z"
            fill="#595959" />
    </g>
</svg>
