<svg width="24" height="24" viewBox="0 0 24 24" fill="none" xmlns="http://www.w3.org/2000/svg">
<path d="M12.0004 2.5C12.0998 2.50008 12.1963 2.52959 12.2777 2.58398L12.3539 2.64648L21.3471 11.6396V11.6406C21.4381 11.7349 21.4888 11.8611 21.4877 11.9922C21.4865 12.1231 21.4338 12.2482 21.3412 12.3408C21.2485 12.4335 21.1227 12.4862 20.9916 12.4873C20.8932 12.4881 20.7977 12.4599 20.7162 12.4072L20.64 12.3467L19.5004 11.207V19C19.5003 19.6629 19.2367 20.2988 18.768 20.7676C18.2992 21.2363 17.6633 21.4999 17.0004 21.5H7.0004C6.33736 21.5 5.70068 21.2364 5.23184 20.7676C4.76316 20.2988 4.50045 19.6629 4.5004 19V11.207L3.35391 12.3535L3.5004 12.5L3.35294 12.3535L3.34708 12.3594C3.30097 12.4071 3.24592 12.4455 3.18497 12.4717C3.12401 12.4978 3.05795 12.5111 2.99161 12.5117L2.89297 12.5029L2.79825 12.4746C2.73687 12.4495 2.68109 12.4121 2.63419 12.3652C2.58732 12.3183 2.54992 12.2625 2.52481 12.2012C2.51229 12.1705 2.50271 12.1388 2.49649 12.1064L2.4877 12.0078C2.48799 11.9746 2.49164 11.9415 2.49844 11.9092L2.52872 11.8145C2.54186 11.7839 2.55774 11.7547 2.57657 11.7275L2.64005 11.6523L2.64688 11.6465L11.6469 2.64648C11.7406 2.55284 11.8679 2.5 12.0004 2.5Z" stroke="#9E9E9E"/>
</svg>
