<svg width="18" height="18" viewBox="0 0 18 18" fill="none" xmlns="http://www.w3.org/2000/svg">
<path d="M8.75 5C8.94891 5 9.13968 5.07902 9.28033 5.21967C9.42098 5.36032 9.5 5.55109 9.5 5.75V10H12.25C12.4489 10 12.6397 10.079 12.7803 10.2197C12.921 10.3603 13 10.5511 13 10.75C13 10.9489 12.921 11.1397 12.7803 11.2803C12.6397 11.421 12.4489 11.5 12.25 11.5H8.75C8.55109 11.5 8.36032 11.421 8.21967 11.2803C8.07902 11.1397 8 10.9489 8 10.75V5.75C8 5.55109 8.07902 5.36032 8.21967 5.21967C8.36032 5.07902 8.55109 5 8.75 5Z" fill="#9E9E9E"/>
<path d="M9 1.5C13.142 1.5 16.5 4.858 16.5 9C16.5 13.142 13.142 16.5 9 16.5C4.858 16.5 1.5 13.142 1.5 9C1.50067 8.61267 1.52917 8.2335 1.5855 7.8625C1.61401 7.66645 1.56379 7.46709 1.44581 7.30794C1.32783 7.14879 1.15167 7.04279 0.955807 7.01307C0.759939 6.98335 0.560269 7.03234 0.400395 7.14933C0.24052 7.26632 0.133427 7.44182 0.1025 7.6375C0.0345 8.0825 0.000333333 8.53667 0 9C0 13.9705 4.0295 18 9 18C13.9705 18 18 13.9705 18 9C18 4.0295 13.9705 0 9 0C6.695 0 4.592 0.867 3 2.292V0.75C3 0.551088 2.92098 0.360322 2.78033 0.21967C2.63968 0.0790175 2.44891 0 2.25 0C2.05109 0 1.86032 0.0790175 1.71967 0.21967C1.57902 0.360322 1.5 0.551088 1.5 0.75V4.25C1.5 4.44891 1.57902 4.63968 1.71967 4.78033C1.86032 4.92098 2.05109 5 2.25 5H5.75C5.94891 5 6.13968 4.92098 6.28033 4.78033C6.42098 4.63968 6.5 4.44891 6.5 4.25C6.5 4.05109 6.42098 3.86032 6.28033 3.71967C6.13968 3.57902 5.94891 3.5 5.75 3.5H3.901C5.28614 2.21178 7.10841 1.49702 9 1.5Z" fill="#9E9E9E"/>
</svg>
