<svg width="24" height="24" viewBox="0 0 24 24" fill="none" xmlns="http://www.w3.org/2000/svg">
<path d="M6.49998 9.5C6.65713 9.5 6.76558 9.54783 6.85936 9.6416C6.92968 9.71192 6.9737 9.79015 6.9912 9.89062L6.99998 9.99902V20C6.99998 20.1571 6.95216 20.2656 6.85838 20.3594C6.78806 20.4297 6.70983 20.4737 6.60936 20.4912L6.50096 20.5H2.99998C2.88191 20.5 2.7918 20.4729 2.71483 20.4199L2.64256 20.3594C2.5722 20.2888 2.52683 20.2096 2.50877 20.1084L2.49998 19.999V10C2.49998 9.84307 2.54764 9.73538 2.64061 9.64258C2.71122 9.57221 2.79036 9.52685 2.89159 9.50879L3.00096 9.5H6.49998ZM13.75 3.5C13.9071 3.5 14.0156 3.54783 14.1094 3.6416C14.1797 3.71192 14.2237 3.79015 14.2412 3.89062L14.25 3.99902V20C14.25 20.1571 14.2022 20.2656 14.1084 20.3594C14.0381 20.4297 13.9598 20.4737 13.8594 20.4912L13.751 20.5H10.25C10.0931 20.5 9.98536 20.4523 9.89256 20.3594C9.8222 20.2888 9.77683 20.2096 9.75877 20.1084L9.74998 19.999V4C9.74998 3.88192 9.77711 3.79181 9.83006 3.71484L9.89061 3.64258C9.96122 3.57221 10.0404 3.52685 10.1416 3.50879L10.251 3.5H13.75ZM21 11.5C21.1571 11.5 21.2656 11.5478 21.3594 11.6416C21.4297 11.7119 21.4737 11.7902 21.4912 11.8906L21.5 11.999V20C21.5 20.1571 21.4522 20.2656 21.3584 20.3594C21.2881 20.4297 21.2098 20.4737 21.1094 20.4912L21.001 20.5H17.5C17.3431 20.5 17.2354 20.4523 17.1426 20.3594C17.0722 20.2888 17.0268 20.2096 17.0088 20.1084L17 19.999V12C17 11.8431 17.0476 11.7354 17.1406 11.6426C17.2112 11.5722 17.2904 11.5268 17.3916 11.5088L17.501 11.5H21Z" stroke="#9E9E9E"/>
</svg>
