<svg width="20" height="21" viewBox="0 0 20 21" fill="none" xmlns="http://www.w3.org/2000/svg">
<g clip-path="url(#clip0_4762_7968)">
<path d="M10.2169 10.1341C11.5404 10.1341 12.6863 9.65936 13.6229 8.72276C14.5592 7.78635 15.034 6.64057 15.034 5.3169C15.034 3.99363 14.5594 2.84773 13.6228 1.91097C12.6862 0.974687 11.5402 0.5 10.2169 0.5C8.89315 0.5 7.74733 0.974687 6.81093 1.91113C5.87452 2.84757 5.39964 3.99351 5.39964 5.3169C5.39964 6.64057 5.87448 7.78651 6.81097 8.72295C7.74768 9.65924 8.89362 10.1341 10.2168 10.1341H10.2169ZM7.63979 2.73984C8.35831 2.02129 9.20124 1.67203 10.2169 1.67203C11.2323 1.67203 12.0754 2.02129 12.794 2.73984C13.5126 3.45851 13.862 4.30155 13.862 5.31687C13.862 6.33249 13.5126 7.17542 12.794 7.89409C12.0754 8.6128 11.2323 8.96205 10.2169 8.96205C9.20151 8.96205 8.35866 8.61264 7.63979 7.89409C6.92108 7.17557 6.57167 6.33253 6.57167 5.3169C6.57167 4.30155 6.92108 3.45851 7.63979 2.73984ZM18.6456 15.879C18.6186 15.4893 18.564 15.0641 18.4836 14.6153C18.4024 14.163 18.2979 13.7354 18.1727 13.3447C18.0434 12.9408 17.8677 12.5419 17.6503 12.1597C17.4249 11.7629 17.16 11.4175 16.8628 11.1332C16.552 10.8358 16.1714 10.5967 15.7313 10.4223C15.2928 10.2488 14.8068 10.161 14.287 10.161C14.0828 10.161 13.8854 10.2447 13.504 10.493C13.233 10.6695 12.9611 10.8448 12.6885 11.0188C12.4265 11.1857 12.0715 11.3421 11.6331 11.4837C11.2055 11.6221 10.7712 11.6923 10.3424 11.6923C9.91397 11.6923 9.47967 11.6221 9.05167 11.4837C8.61378 11.3422 8.2587 11.1859 7.99714 11.0189C7.69362 10.825 7.41901 10.648 7.18081 10.4928C6.7998 10.2446 6.60233 10.1608 6.39819 10.1608C5.87816 10.1608 5.39234 10.2488 4.95394 10.4225C4.51417 10.5966 4.13347 10.8357 3.82234 11.1334C3.52511 11.4178 3.26023 11.7631 3.035 12.1597C2.81789 12.5419 2.64211 12.9406 2.51269 13.3448C2.38769 13.7356 2.2832 14.163 2.20203 14.6153C2.12145 15.0636 2.06699 15.4888 2.03996 15.8795C2.0134 16.2614 2 16.6589 2 17.0605C2 18.1045 2.33187 18.9497 2.98633 19.573C3.63269 20.1881 4.48781 20.5 5.52796 20.5H15.1581C16.1979 20.5 17.0531 20.1881 17.6996 19.573C18.3542 18.9501 18.6861 18.1047 18.6861 17.0603C18.6859 16.6574 18.6723 16.2599 18.6456 15.879ZM16.8915 18.7238C16.4644 19.1303 15.8974 19.3279 15.1579 19.3279H5.528C4.78843 19.3279 4.2214 19.1303 3.79445 18.724C3.37562 18.3253 3.17207 17.781 3.17207 17.0605C3.17207 16.6857 3.18441 16.3157 3.20918 15.9605C3.23324 15.612 3.28254 15.2291 3.35566 14.8223C3.42781 14.4206 3.51965 14.0435 3.6289 13.7022C3.73375 13.3749 3.87671 13.0508 4.05402 12.7386C4.22324 12.441 4.41792 12.1858 4.63277 11.9801C4.83374 11.7877 5.08706 11.6302 5.3855 11.5121C5.66152 11.4028 5.97175 11.343 6.30851 11.334C6.34952 11.3559 6.42265 11.3975 6.54105 11.4747C6.78198 11.6317 7.05968 11.8109 7.36671 12.0069C7.7128 12.2276 8.15862 12.4269 8.69131 12.5988C9.23588 12.7749 9.79131 12.8643 10.3426 12.8643C10.8939 12.8643 11.4495 12.7749 11.9938 12.599C12.5269 12.4267 12.9726 12.2276 13.3192 12.0066C13.6333 11.8058 13.9033 11.6319 14.1442 11.4747C14.2626 11.3976 14.3357 11.3558 14.3767 11.334C14.7136 11.343 15.0238 11.4028 15.3 11.5121C15.5983 11.6302 15.8517 11.7878 16.0526 11.9801C16.2674 12.1856 16.4621 12.4409 16.6313 12.7388C16.8088 13.0508 16.952 13.3751 17.0566 13.702C17.166 14.0438 17.258 14.4207 17.33 14.8222C17.403 15.2297 17.4524 15.6127 17.4765 15.9606V15.9609C17.5014 16.3148 17.5139 16.6847 17.5141 17.0605C17.5139 17.7812 17.3104 18.3253 16.8915 18.7238H16.8915Z" fill="#595959"/>
</g>
<defs>
<clipPath id="clip0_4762_7968">
<rect width="20" height="20" fill="white" transform="translate(0 0.5)"/>
</clipPath>
</defs>
</svg>
