<svg width="16" height="19" viewBox="0 0 16 19" fill="none" xmlns="http://www.w3.org/2000/svg">
<g id="Group">
<g id="Layer 11">
<path id="Vector" d="M13 6.73125H12.6687V4.79375C12.6687 3.55552 12.1769 2.36801 11.3013 1.49245C10.4257 0.616885 9.23823 0.125 8 0.125C6.76177 0.125 5.57426 0.616885 4.6987 1.49245C3.82313 2.36801 3.33125 3.55552 3.33125 4.79375V6.73125H3C2.33696 6.73125 1.70107 6.99464 1.23223 7.46348C0.763392 7.93232 0.5 8.56821 0.5 9.23125V16.375C0.5 17.038 0.763392 17.6739 1.23223 18.1428C1.70107 18.6116 2.33696 18.875 3 18.875H13C13.663 18.875 14.2989 18.6116 14.7678 18.1428C15.2366 17.6739 15.5 17.038 15.5 16.375V9.23125C15.5 8.56821 15.2366 7.93232 14.7678 7.46348C14.2989 6.99464 13.663 6.73125 13 6.73125ZM4.58125 4.79375C4.58125 4.34479 4.66968 3.90023 4.84149 3.48545C5.0133 3.07067 5.26512 2.69379 5.58258 2.37633C5.90004 2.05887 6.27692 1.80704 6.6917 1.63524C7.10648 1.46343 7.55104 1.375 8 1.375C8.44896 1.375 8.89352 1.46343 9.3083 1.63524C9.72308 1.80704 10.1 2.05887 10.4174 2.37633C10.7349 2.69379 10.9867 3.07067 11.1585 3.48545C11.3303 3.90023 11.4187 4.34479 11.4187 4.79375V6.73125H4.58125V4.79375ZM14.25 16.375C14.25 16.7065 14.1183 17.0245 13.8839 17.2589C13.6495 17.4933 13.3315 17.625 13 17.625H3C2.66848 17.625 2.35054 17.4933 2.11612 17.2589C1.8817 17.0245 1.75 16.7065 1.75 16.375V9.23125C1.75 8.89973 1.8817 8.58179 2.11612 8.34737C2.35054 8.11295 2.66848 7.98125 3 7.98125H13C13.3315 7.98125 13.6495 8.11295 13.8839 8.34737C14.1183 8.58179 14.25 8.89973 14.25 9.23125V16.375Z" fill="#595959"/>
<path id="Vector_2" d="M8.00002 10.7037C7.75753 10.7038 7.52059 10.7763 7.31956 10.9119C7.11853 11.0474 6.96256 11.24 6.87165 11.4648C6.78073 11.6896 6.75902 11.9364 6.80928 12.1736C6.85954 12.4108 6.9795 12.6276 7.15377 12.7962V14.2781C7.15377 14.4439 7.21962 14.6028 7.33683 14.7201C7.45404 14.8373 7.61301 14.9031 7.77877 14.9031H8.22127C8.38703 14.9031 8.546 14.8373 8.66321 14.7201C8.78042 14.6028 8.84627 14.4439 8.84627 14.2781V12.7962C9.02054 12.6276 9.14049 12.4108 9.19075 12.1736C9.24102 11.9364 9.2193 11.6896 9.12839 11.4648C9.03748 11.24 8.88151 11.0474 8.68048 10.9119C8.47944 10.7763 8.2425 10.7038 8.00002 10.7037Z" fill="#595959"/>
</g>
</g>
</svg>
