<svg width="24" height="24" viewBox="0 0 24 24" fill="none" xmlns="http://www.w3.org/2000/svg">
<path d="M9.05813 2.12821V1H14.9419V2.12821H9.05813ZM11.4375 14.6693H12.5625V8.76769H11.4375V14.6693ZM12 23C10.7565 23 9.58913 22.7646 8.49788 22.2937C7.40663 21.8229 6.45225 21.1776 5.63475 20.3577C4.81725 19.5379 4.17375 18.5804 3.70425 17.4853C3.23475 16.3902 3 15.2199 3 13.9744C3 12.7288 3.23475 11.5581 3.70425 10.4623C4.17375 9.36639 4.81725 8.4093 5.63475 7.59097C6.45225 6.77265 7.407 6.12732 8.499 5.65497C9.591 5.18263 10.758 4.94721 12 4.94872C13.0905 4.94872 14.145 5.14427 15.1635 5.53538C16.182 5.9265 17.1165 6.47894 17.967 7.19272L19.1955 5.95959L19.992 6.75836L18.7635 7.99036C19.476 8.84403 20.0269 9.78157 20.4161 10.803C20.8054 11.8244 21 12.8815 21 13.9744C21 15.2214 20.7653 16.3921 20.2957 17.4865C19.8263 18.5808 19.1828 19.5379 18.3653 20.3577C17.5478 21.1776 16.593 21.8229 15.501 22.2937C14.409 22.7646 13.242 23 12 23ZM12 21.8718C14.175 21.8718 16.0313 21.1009 17.5688 19.559C19.1063 18.0171 19.875 16.1556 19.875 13.9744C19.875 11.7932 19.1063 9.93162 17.5688 8.38974C16.0313 6.84786 14.175 6.07692 12 6.07692C9.825 6.07692 7.96875 6.84786 6.43125 8.38974C4.89375 9.93162 4.125 11.7932 4.125 13.9744C4.125 16.1556 4.89375 18.0171 6.43125 19.559C7.96875 21.1009 9.825 21.8718 12 21.8718Z" fill="#9E9E9E"/>
</svg>
